<?xml version="1.0" encoding="UTF-8"?>
<!DOCTYPE svg PUBLIC "-//W3C//DTD SVG 1.1//EN" "http://www.w3.org/Graphics/SVG/1.1/DTD/svg11.dtd">
<!-- Creator: CorelDRAW 2021 (64-Bit) -->
<svg xmlns="http://www.w3.org/2000/svg" xml:space="preserve" width="64.9791mm" height="64.9798mm" version="1.1" style="shape-rendering:geometricPrecision; text-rendering:geometricPrecision; image-rendering:optimizeQuality; fill-rule:evenodd; clip-rule:evenodd"
viewBox="0 0 2577.8 2577.83"
 xmlns:xlink="http://www.w3.org/1999/xlink"
 xmlns:xodm="http://www.corel.com/coreldraw/odm/2003">
 <defs>
  <style type="text/css">
   <![CDATA[
    .fil0 {fill:white;fill-rule:nonzero}
   ]]>
  </style>
 </defs>
 <g id="Layer_x0020_1">
  <metadata id="CorelCorpID_0Corel-Layer"/>
  <g id="user-circle.svg">
   <path class="fil0" d="M1288.9 0c-710.71,0 -1288.9,578.21 -1288.9,1288.91 0,710.72 578.19,1288.91 1288.9,1288.91 710.72,0 1288.9,-578.2 1288.9,-1288.91 0,-710.71 -578.18,-1288.91 -1288.9,-1288.91zm8.24 405.04c264.72,0 479.34,253.4 479.34,566.1 0,312.65 -214.62,566.14 -479.34,566.14 -264.72,0 -479.31,-253.49 -479.31,-566.14 0,-312.7 214.59,-566.1 479.31,-566.1zm-8.24 2016.31c-318.26,0 -606.28,-131.97 -812.22,-344.08 -29.21,-30.09 -38.46,-74.44 -23.72,-113.68 70.5,-187.61 202.59,-344.94 371.43,-448.04 36.45,-22.27 83.12,-17.96 114.84,10.68 99.32,89.68 223.19,143.25 357.89,143.25 132.1,0 253.79,-51.57 352.11,-138.16 32.07,-28.24 78.99,-31.95 115.13,-9.16 163.65,103.16 291.53,257.85 360.47,441.49 14.75,39.27 5.48,83.55 -23.74,113.64 -205.92,212.09 -493.94,344.06 -812.18,344.06z"/>
  </g>
 </g>
</svg>
