<?xml version="1.0" encoding="UTF-8"?>
<!DOCTYPE svg PUBLIC "-//W3C//DTD SVG 1.1//EN" "http://www.w3.org/Graphics/SVG/1.1/DTD/svg11.dtd">
<!-- Creator: CorelDRAW 2021 (64-Bit) -->
<svg xmlns="http://www.w3.org/2000/svg" xml:space="preserve" width="64.9791mm" height="64.9798mm" version="1.1" style="shape-rendering:geometricPrecision; text-rendering:geometricPrecision; image-rendering:optimizeQuality; fill-rule:evenodd; clip-rule:evenodd"
viewBox="0 0 966.09 966.1"
 xmlns:xlink="http://www.w3.org/1999/xlink"
 xmlns:xodm="http://www.corel.com/coreldraw/odm/2003">
 <defs>
  <style type="text/css">
   <![CDATA[
    .fil0 {fill:#307302;fill-rule:nonzero}
   ]]>
  </style>
 </defs>
 <g id="Layer_x0020_1">
  <metadata id="CorelCorpID_0Corel-Layer"/>
  <g id="user-circle.svg">
   <path class="fil0" d="M483.04 0c-266.35,0 -483.04,216.7 -483.04,483.05 0,266.36 216.69,483.05 483.04,483.05 266.36,0 483.05,-216.69 483.05,-483.05 0,-266.35 -216.69,-483.05 -483.05,-483.05zm3.09 151.8c99.21,0 179.64,94.97 179.64,212.16 0,117.17 -80.43,212.17 -179.64,212.17 -99.21,0 -179.63,-95 -179.63,-212.17 0,-117.19 80.42,-212.16 179.63,-212.16zm-3.09 755.66c-119.27,0 -227.22,-49.46 -304.4,-128.95 -10.95,-11.28 -14.41,-27.9 -8.89,-42.6 26.42,-70.31 75.93,-129.27 139.2,-167.91 13.66,-8.35 31.15,-6.73 43.04,4 37.22,33.61 83.64,53.69 134.13,53.69 49.51,0 95.11,-19.33 131.96,-51.78 12.02,-10.58 29.6,-11.97 43.15,-3.43 61.33,38.66 109.26,96.63 135.09,165.46 5.53,14.72 2.05,31.31 -8.9,42.59 -77.17,79.49 -185.11,128.95 -304.38,128.95z"/>
  </g>
 </g>
</svg>
