<?xml version="1.0" encoding="UTF-8"?>
<!DOCTYPE svg PUBLIC "-//W3C//DTD SVG 1.1//EN" "http://www.w3.org/Graphics/SVG/1.1/DTD/svg11.dtd">
<!-- Creator: CorelDRAW 2021 (64-Bit) -->
<svg xmlns="http://www.w3.org/2000/svg" xml:space="preserve" width="64.9791mm" height="64.9798mm" version="1.1" style="shape-rendering:geometricPrecision; text-rendering:geometricPrecision; image-rendering:optimizeQuality; fill-rule:evenodd; clip-rule:evenodd"
viewBox="0 0 735.62 735.63"
 xmlns:xlink="http://www.w3.org/1999/xlink"
 xmlns:xodm="http://www.corel.com/coreldraw/odm/2003">
 <defs>
  <style type="text/css">
   <![CDATA[
    .fil0 {fill:#F28705;fill-rule:nonzero}
   ]]>
  </style>
 </defs>
 <g id="Layer_x0020_1">
  <metadata id="CorelCorpID_0Corel-Layer"/>
  <g id="user-circle.svg">
   <path class="fil0" d="M367.81 0c-202.81,0 -367.81,165 -367.81,367.81 0,202.82 165,367.81 367.81,367.81 202.82,0 367.81,-165 367.81,-367.81 0,-202.81 -164.99,-367.81 -367.81,-367.81zm2.35 115.59c75.54,0 136.79,72.31 136.79,161.55 0,89.22 -61.24,161.56 -136.79,161.56 -75.54,0 -136.78,-72.34 -136.78,-161.56 0,-89.24 61.24,-161.55 136.78,-161.55zm-2.35 575.39c-90.82,0 -173.01,-37.66 -231.78,-98.19 -8.33,-8.59 -10.98,-21.24 -6.77,-32.44 20.12,-53.54 57.81,-98.43 105.99,-127.86 10.4,-6.36 23.72,-5.12 32.77,3.05 28.34,25.59 63.69,40.88 102.13,40.88 37.7,0 72.42,-14.72 100.48,-39.43 9.15,-8.06 22.54,-9.12 32.85,-2.62 46.7,29.44 83.19,73.58 102.87,125.99 4.21,11.21 1.56,23.84 -6.77,32.43 -58.76,60.52 -140.95,98.18 -231.77,98.18z"/>
  </g>
 </g>
</svg>
