<?xml version="1.0" encoding="UTF-8"?>
<!DOCTYPE svg PUBLIC "-//W3C//DTD SVG 1.1//EN" "http://www.w3.org/Graphics/SVG/1.1/DTD/svg11.dtd">
<!-- Creator: CorelDRAW 2021 (64-Bit) -->
<svg xmlns="http://www.w3.org/2000/svg" xml:space="preserve" width="64.9791mm" height="64.9798mm" version="1.1" style="shape-rendering:geometricPrecision; text-rendering:geometricPrecision; image-rendering:optimizeQuality; fill-rule:evenodd; clip-rule:evenodd"
viewBox="0 0 1397.75 1397.76"
 xmlns:xlink="http://www.w3.org/1999/xlink"
 xmlns:xodm="http://www.corel.com/coreldraw/odm/2003">
 <defs>
  <style type="text/css">
   <![CDATA[
    .fil0 {fill:black;fill-rule:nonzero}
   ]]>
  </style>
 </defs>
 <g id="Layer_x0020_1">
  <metadata id="CorelCorpID_0Corel-Layer"/>
  <g id="user-circle.svg">
   <path class="fil0" d="M698.87 0c-385.36,0 -698.87,313.52 -698.87,698.88 0,385.37 313.51,698.88 698.87,698.88 385.37,0 698.88,-313.51 698.88,-698.88 0,-385.36 -313.5,-698.88 -698.88,-698.88zm4.47 219.62c143.54,0 259.91,137.4 259.91,306.96 0,169.53 -116.37,306.98 -259.91,306.98 -143.54,0 -259.89,-137.45 -259.89,-306.98 0,-169.56 116.36,-306.96 259.89,-306.96zm-4.47 1093.3c-172.57,0 -328.74,-71.56 -440.41,-186.57 -15.84,-16.32 -20.85,-40.36 -12.86,-61.64 38.23,-101.73 109.85,-187.03 201.4,-242.94 19.76,-12.08 45.07,-9.74 62.27,5.79 53.85,48.63 121.02,77.67 194.06,77.67 71.63,0 137.61,-27.96 190.92,-74.91 17.39,-15.31 42.83,-17.32 62.42,-4.97 88.74,55.94 158.07,139.81 195.46,239.39 8,21.3 2.97,45.3 -12.87,61.62 -111.65,115 -267.83,186.56 -440.39,186.56z"/>
  </g>
 </g>
</svg>
